<?xml version="1.0" encoding="UTF-8"?>
<!DOCTYPE svg PUBLIC "-//W3C//DTD SVG 1.1//EN" "http://www.w3.org/Graphics/SVG/1.1/DTD/svg11.dtd">
<!-- Creator: CorelDRAW 2020 (64-Bit) -->
<svg xmlns="http://www.w3.org/2000/svg" xml:space="preserve" width="450px" height="450px" version="1.1" style="shape-rendering:geometricPrecision; text-rendering:geometricPrecision; image-rendering:optimizeQuality; fill-rule:evenodd; clip-rule:evenodd"
viewBox="0 0 97.02 97.02"
 xmlns:xlink="http://www.w3.org/1999/xlink"
 xmlns:xodm="http://www.corel.com/coreldraw/odm/2003">
 <defs>
  <style type="text/css">
   <![CDATA[
    .fil1 {fill:#D9DADA}
    .fil0 {fill:#FEFEFE}
   ]]>
  </style>
 </defs>
 <g id="Слой_x0020_1">
  <metadata id="CorelCorpID_0Corel-Layer"/>
  <g id="_2020547177856">
   <rect class="fil0" width="97.02" height="97.02"/>
   <g>
    <g>
     <path class="fil1" d="M37.83 42.29c0.17,1.37 -0.78,1.51 -1.51,2.04 -3.44,2.48 -5.97,5.93 -7.36,10.04 -0.31,0.91 -0.48,1.74 -0.71,2.74 -0.28,1.17 -1.56,1.12 -1.91,0.27 -0.38,-0.93 1.14,-4.77 1.42,-5.44 1.68,-4.02 4.33,-7.07 7.85,-9.52 1.2,-0.84 1.45,-0.88 2.22,-0.13zm8.59 -3.24c2.7,-0.26 1.85,1.72 1.12,1.89 -0.33,0.08 -2.52,0.1 -4.16,0.43 -0.7,0.14 -1.35,0.18 -1.64,-0.38 -1.05,-2.01 3.68,-1.84 4.68,-1.94zm-2.14 -3.87c0.19,-4.38 6,-4.08 5.96,-0.02 -1.79,-0.27 -4.21,-0.2 -5.96,0.02zm7.97 0.3c-0.08,-1.96 -0.21,-2.52 -1.29,-3.83 -1.27,-1.53 -3.85,-2.16 -5.81,-1.2 -2.06,1 -2.77,2.61 -2.87,5.03 -3.09,0.56 -6.27,1.92 -8.59,3.34 -2.24,1.37 -2.57,1.83 -4.28,3.29 -1.76,1.51 -4.09,4.71 -5.13,6.8 -0.18,0.35 -0.36,0.56 -0.51,0.93 -1.84,4.22 -2.52,7.06 -2.52,12.19l34.53 0 0 -18.04c0,-2.85 0.82,-5.04 2.87,-6.37 -1.97,-0.95 -4.23,-1.75 -6.4,-2.14z"/>
     <path class="fil1" d="M28.96 72.02c8.88,0.06 17.88,0 26.82,-0.01l0 -9.01c-1.89,0 -3.78,0.01 -5.67,0.02 -5.48,0.05 -11,-0.1 -16.48,0 -2.68,0.05 -5.57,0.05 -8.24,-0.01 -1.27,-0.03 -2.9,-0.06 -4.14,0 -1.47,0.07 -2.14,1.28 -2,2.14 0.15,0.94 1.77,2.83 2.47,3.87 1.67,2.49 3.8,2.98 7.24,3z"/>
    </g>
    <g>
     <path class="fil1" d="M60.71 49.53c0,-1.01 0.49,-1.43 1.5,-1.43l10.05 0c0.99,0 1.45,0.44 1.45,1.43l0 15.72c0,1.02 -0.45,1.49 -1.45,1.49l-10.07 0c-1.05,0 -1.48,-0.44 -1.48,-1.49l0 -15.72zm10.07 -23.91c1.08,-0.22 1.33,-0.51 1.33,-1.71 0,-3.24 0.46,-4.15 -1.92,-4.14l-6.03 -0.01c-1.09,0 -1.74,0.13 -1.82,1.22 -0.07,0.91 -0.01,2.09 -0.01,3.03 0,0.49 0.05,0.93 0.33,1.22 0.28,0.28 0.7,0.28 0.98,0.47l-0.04 11.3c-0.39,0.1 -1.18,0.08 -1.69,0.18 -0.47,0.09 -0.94,0.25 -1.37,0.43 -2.82,1.23 -3.91,3.64 -3.91,6.93l0 28.91c0.01,2.28 1.23,3.71 3.48,3.76 2.37,0.06 4.79,0.01 7.16,0.01 2.35,0 4.94,0.1 7.26,-0.01 2.38,-0.12 3.27,-1.81 3.27,-3.95l-0.01 -28.82c0.01,-1.29 -0.02,-2.1 -0.44,-3.19 -0.36,-0.94 -0.85,-1.59 -1.41,-2.18 -1.36,-1.41 -2.55,-1.88 -5.16,-2.04l0 -11.41z"/>
    </g>
   </g>
  </g>
 </g>
</svg>
